<svg width="640" height="220" viewBox="0 0 640 220" fill="none" xmlns="http://www.w3.org/2000/svg">
  <defs>
    <linearGradient id="bg" x1="32" y1="20" x2="608" y2="200" gradientUnits="userSpaceOnUse">
      <stop stop-color="#ECDACB"/>
      <stop offset="1" stop-color="#C69773"/>
    </linearGradient>
    <filter id="shadow" x="0" y="0" width="640" height="220" filterUnits="userSpaceOnUse" color-interpolation-filters="sRGB">
      <feFlood flood-opacity="0" result="BackgroundImageFix"/>
      <feColorMatrix in="SourceAlpha" type="matrix" values="0 0 0 0 0 0 0 0 0 0 0 0 0 0 0 0 0 0 127 0" result="hardAlpha"/>
      <feOffset dy="6"/>
      <feGaussianBlur stdDeviation="8"/>
      <feComposite in2="hardAlpha" operator="out"/>
      <feColorMatrix type="matrix" values="0 0 0 0 0.23 0 0 0 0 0.17 0 0 0 0 0.14 0 0 0 0.32 0"/>
      <feBlend mode="normal" in2="BackgroundImageFix" result="effect1_dropShadow_1"/>
      <feBlend mode="normal" in="SourceGraphic" in2="effect1_dropShadow_1" result="shape"/>
    </filter>
  </defs>

  <g filter="url(#shadow)">
    <rect x="24" y="24" width="592" height="164" rx="48" fill="url(#bg)"/>
    <rect x="24" y="24" width="592" height="164" rx="48" stroke="#7A5338" stroke-width="8"/>
  </g>

  <g transform="translate(72 66)">
    <rect width="76" height="76" rx="18" fill="#7A5338"/>
    <path d="M38 13L59 24V46L38 57L17 46V24L38 13Z" fill="#F4E8DF"/>
    <path d="M38 13V57M17 24L38 35L59 24" stroke="#7A5338" stroke-width="3" stroke-linecap="round" stroke-linejoin="round"/>
  </g>

  <text x="172" y="128" fill="#3E3A39" font-family="Montserrat, Arial, sans-serif" font-size="98" font-weight="800" letter-spacing="-2">Paqq</text>

  <g transform="translate(522 60) rotate(-12)">
    <rect width="54" height="54" rx="14" fill="#7A5338"/>
    <path d="M27 11L42 19V35L27 43L12 35V19L27 11Z" fill="#F4E8DF"/>
    <path d="M27 11V43M12 19L27 27L42 19" stroke="#7A5338" stroke-width="2.4" stroke-linecap="round" stroke-linejoin="round"/>
  </g>
</svg>
